<svg xmlns="http://www.w3.org/2000/svg" viewBox="0 0 260 260" role="img" aria-label="웃는 김정은 사진 스타일">
  <defs>
    <radialGradient id="skinK" cx="50%" cy="43%" r="64%">
      <stop offset="0%" stop-color="#f0c0a0"/>
      <stop offset="100%" stop-color="#d89172"/>
    </radialGradient>
  </defs>
  <rect width="260" height="260" fill="#dfd1bd"/>
  <path d="M52 260c9-52 39-81 78-81 40 0 69 29 78 81H52Z" fill="#151515"/>
  <path d="M52 100c1-54 33-80 79-80 47 0 78 27 79 80-20-22-48-32-80-32-31 0-58 10-78 32Z" fill="#090909"/>
  <path d="M53 109c8-34 36-54 77-54 42 0 70 20 78 55 7 31 0 68-17 92-15 21-36 31-61 31-24 0-45-10-60-31-17-24-24-62-17-93Z" fill="url(#skinK)"/>
  <path d="M57 107c20-19 47-27 82-24 28 2 52 10 68 25-5-43-35-75-78-75-41 0-68 30-72 74Z" fill="#0f0f10"/>
  <path d="M76 135c11-8 25-8 36 0M147 135c11-8 25-8 36 0" fill="none" stroke="#211b1a" stroke-width="7" stroke-linecap="round"/>
  <path d="M76 120c14-8 30-9 45-2M140 118c16-7 32-6 45 2" fill="none" stroke="#111" stroke-width="6" stroke-linecap="round"/>
  <path d="M88 174c23 22 62 22 85 0" fill="#fff"/>
  <path d="M88 174c23 22 62 22 85 0" fill="none" stroke="#7a2b2b" stroke-width="8" stroke-linecap="round"/>
  <path d="M94 174h72" stroke="#dddddd" stroke-width="4"/>
  <path d="M127 136c-3 14-7 27-13 38 10 6 23 6 33 0-7-11-11-24-14-38" fill="none" stroke="#a66b56" stroke-width="5" stroke-linecap="round"/>
  <path d="M75 223h110" stroke="#222" stroke-width="16" stroke-linecap="round"/>
</svg>
