<svg xmlns="http://www.w3.org/2000/svg" viewBox="0 0 260 260" role="img" aria-label="이재명 얼굴 사진 스타일">
  <defs>
    <radialGradient id="skin" cx="50%" cy="42%" r="65%">
      <stop offset="0%" stop-color="#f2c8a9"/>
      <stop offset="100%" stop-color="#d99b79"/>
    </radialGradient>
    <linearGradient id="suit" x1="0" x2="1">
      <stop offset="0" stop-color="#1d2738"/>
      <stop offset="1" stop-color="#39465a"/>
    </linearGradient>
  </defs>
  <rect width="260" height="260" fill="#d7e3ef"/>
  <path d="M54 256c9-46 41-70 78-70 39 0 70 24 78 70H54Z" fill="url(#suit)"/>
  <path d="M94 198h72l-14 58h-43L94 198Z" fill="#f4f7fb"/>
  <path d="M122 205h18l8 51h-33l7-51Z" fill="#a83339"/>
  <path d="M51 104c-11-52 25-88 78-88 54 0 90 36 80 88-16-32-44-48-80-48-35 0-62 16-78 48Z" fill="#141414"/>
  <path d="M56 102c12-31 40-47 73-47 35 0 63 17 75 49 7 20 6 52-3 74-12 31-38 48-72 48-33 0-59-17-72-48-9-23-9-56-1-76Z" fill="url(#skin)"/>
  <path d="M60 107c18-25 44-36 76-34 29 2 52 13 68 34-8-35-36-61-74-62-39-1-64 23-70 62Z" fill="#202026"/>
  <ellipse cx="87" cy="132" rx="24" ry="16" fill="none" stroke="#2d2a2a" stroke-width="5"/>
  <ellipse cx="153" cy="132" rx="24" ry="16" fill="none" stroke="#2d2a2a" stroke-width="5"/>
  <path d="M111 132h18M177 130c12-5 23-5 32 0M51 130c10-5 20-5 32 0" stroke="#2d2a2a" stroke-width="5" stroke-linecap="round"/>
  <circle cx="88" cy="133" r="4" fill="#151515"/>
  <circle cx="154" cy="133" r="4" fill="#151515"/>
  <path d="M128 137c-4 15-8 28-14 39 10 6 23 6 32 0-6-11-10-24-13-39" fill="none" stroke="#a96c56" stroke-width="5" stroke-linecap="round"/>
  <path d="M96 190c20 15 48 15 68 0" fill="none" stroke="#7d2f30" stroke-width="6" stroke-linecap="round"/>
  <circle cx="205" cy="157" r="8" fill="#fff"/>
  <rect x="197" y="151" width="26" height="18" rx="3" fill="#fff"/>
  <circle cx="205" cy="160" r="4" fill="#c73434"/>
  <path d="M218 151v18" stroke="#222" stroke-width="2"/>
</svg>
